HIERARCHY
ROOT hip
{
	OFFSET 0.000000 0.000000 0.000000 
	CHANNELS 6 Xposition Yposition Zposition Xrotation Zrotation Yrotation
	JOINT abdomen
	{
		OFFSET 0.000000 3.402643 0.000000 
		CHANNELS 3 Xrotation Zrotation Yrotation
		JOINT chest
		{
			OFFSET 0.000000 8.438565 -0.680529 
			CHANNELS 3 Xrotation Zrotation Yrotation
			JOINT neck
			{
				OFFSET 0.000000 10.207942 -0.272212 
				CHANNELS 3 Xrotation Zrotation Yrotation
				JOINT head
				{
					OFFSET 0.000000 3.130431 0.000000 
					CHANNELS 3 Xrotation Zrotation Yrotation
					End Site
					{
						OFFSET 0.000000 3.130435 0.000000 
					}
				}
			}
			JOINT lCollar
			{
				OFFSET 3.470700 6.669187 -0.816635 
				CHANNELS 3 Yrotation Zrotation Xrotation
				JOINT lShldr
				{
					OFFSET 3.198488 0.000000 0.000000 
					CHANNELS 3 Zrotation Yrotation Xrotation
					JOINT lForeArm
					{
						OFFSET 10.139888 0.000000 0.000000 
						CHANNELS 3 Yrotation Zrotation Xrotation
						JOINT lHand
						{
							OFFSET 8.370511 0.000000 0.000000 
							CHANNELS 3 Zrotation Yrotation Xrotation
							End Site
							{
								OFFSET 4.083176 0.000000 0.000000 
							}
						}
					}
				}
			}
			JOINT rCollar
			{
				OFFSET -3.470700 6.669187 -0.816635 
				CHANNELS 3 Yrotation Zrotation Xrotation
				JOINT rShldr
				{
					OFFSET -3.198488 0.000000 0.000000 
					CHANNELS 3 Zrotation Yrotation Xrotation
					JOINT rForeArm
					{
						OFFSET -10.139888 0.000000 0.000000 
						CHANNELS 3 Yrotation Zrotation Xrotation
						JOINT rHand
						{
							OFFSET -8.370511 0.000000 0.000000 
							CHANNELS 3 Zrotation Yrotation Xrotation
							End Site
							{
								OFFSET -4.083176 0.000000 0.000000 
							}
						}
					}
				}
			}
		}
	}
	JOINT lThigh
	{
		OFFSET 5.308129 -1.633274 1.361059 
		CHANNELS 3 Xrotation Zrotation Yrotation
		JOINT lShin
		{
			OFFSET -2.041588 -20.007561 0.000000 
			CHANNELS 3 Xrotation Zrotation Yrotation
			JOINT lFoot
			{
				OFFSET 0.000000 -19.190928 -1.224953 
				CHANNELS 3 Xrotation Yrotation Zrotation
				End Site
				{
					OFFSET 0.000000 -2.449906 4.627600 
				}
			}
		}
	}
	JOINT rThigh
	{
		OFFSET -5.308129 -1.633274 1.361059 
		CHANNELS 3 Xrotation Zrotation Yrotation
		JOINT rShin
		{
			OFFSET 2.041588 -20.007561 0.000000 
			CHANNELS 3 Xrotation Zrotation Yrotation
			JOINT rFoot
			{
				OFFSET 0.000000 -19.190928 -1.224953 
				CHANNELS 3 Xrotation Yrotation Zrotation
				End Site
				{
					OFFSET 0.000000 -2.449906 4.627600 
				}
			}
		}
	}
}
MOTION
Frames: 19
Frame Time: 0.016667
-3.933579 50.817577 106.998833 1.593000 -6.725940 80.212799 -20.258600 -2.705160 -7.238360 14.086400 3.920260 -4.057150 32.072498 10.418500 -10.280700 20.438900 5.410520 -4.798990 2.000000 -2.000000 0.000000 -78.017303 -3.775960 -157.570007 74.053299 -0.252412 0.131505 -179.897995 -179.876999 -6.950980 -2.000000 2.000000 0.000000 77.364899 -19.406099 -162.617004 -54.766102 0.293723 0.111675 -0.060711 0.044556 -153.044998 -18.264833 5.154930 -13.536756 37.500515 2.540446 2.704038 -27.182728 5.300874 -0.594407 -22.848127 4.061984 7.425646 39.264030 -2.189675 -2.922849 -26.592760 9.263957 3.223598 
-4.134934 50.823254 108.590660 2.074740 -6.704630 80.372299 -20.036900 -2.686690 -6.964290 14.036200 4.075120 -3.941450 31.774700 10.748600 -10.468400 20.383499 5.524700 -4.897670 2.000000 -2.000000 0.000000 -77.607597 -3.367150 -158.175995 74.775902 -0.250751 0.131968 -179.897003 -179.876007 -7.497850 -2.000000 2.000000 0.000000 78.018898 -19.279699 -162.373001 -53.516102 0.296141 0.109928 -0.060538 0.043952 -152.820007 -18.843430 5.279934 -13.276637 37.944420 2.508869 2.734191 -24.186197 3.388246 -1.437674 -23.427776 3.772751 7.392107 40.051819 -2.144788 -2.987394 -26.810423 8.963843 3.098859 
-4.347882 50.766533 110.163292 2.565870 -6.604760 80.319603 -19.788601 -2.693910 -6.619040 13.918100 4.142060 -3.772110 31.458599 10.967700 -10.663400 20.295799 5.546120 -4.988580 2.000000 -2.000000 0.000000 -77.002502 -2.919060 -158.684998 75.566902 -0.248926 0.132451 -179.895996 -179.875000 -7.829880 -2.000000 2.000000 0.000000 78.702003 -19.026501 -162.069000 -52.285599 0.298482 0.108157 -0.060010 0.042055 -152.117004 -19.460377 5.324566 -13.418156 38.753098 2.449482 2.787187 -20.979034 1.003941 -2.243879 -24.054043 3.556203 7.568781 41.025021 -2.100808 -3.047039 -27.290674 8.460281 2.859136 
-4.571605 50.693825 111.709290 2.939150 -6.553940 80.357597 -19.564301 -2.658430 -6.383590 13.711800 4.227580 -3.670400 31.152800 11.170800 -10.647700 20.210100 5.633180 -4.972690 2.000000 -2.000000 0.000000 -76.426804 -2.353830 -159.212997 76.436096 -0.246914 0.132952 -179.895004 -179.875000 -8.103320 -2.000000 2.000000 0.000000 79.140900 -18.675699 -161.766006 -51.270000 0.300386 0.106657 -0.059692 0.040866 -151.677994 -20.296900 5.253194 -14.310657 40.100468 2.396098 2.869163 -18.289871 -1.751520 -2.987303 -24.736397 3.283161 7.508311 42.067650 -2.044433 -3.119153 -27.554688 8.576380 2.941978 
-4.823624 50.481518 113.224403 3.204110 -6.484080 80.418098 -19.395599 -2.615770 -6.212810 13.359000 4.253450 -3.593260 30.681200 11.382100 -10.730400 19.998699 5.780540 -5.022040 2.000000 -2.000000 0.000000 -75.821602 -1.690810 -159.684006 77.363800 -0.244758 0.133454 0.105427 -0.125740 171.477005 -2.000000 2.000000 0.000000 79.756104 -18.255100 -162.057999 -50.244598 0.302281 0.105109 -0.059031 0.038269 -150.720993 -21.268970 5.118372 -15.471237 41.812386 2.302253 2.966019 -16.458881 -4.502904 -3.634400 -25.661757 3.036163 7.372783 43.570919 -1.958814 -3.187207 -27.606625 8.950921 3.171422 
-5.079935 50.197922 114.698265 3.292760 -6.512760 80.474800 -19.175501 -2.478560 -6.096350 13.075200 4.231380 -3.523830 30.193399 11.323300 -10.921800 19.780800 5.721370 -5.101220 2.000000 -2.000000 0.000000 -75.343498 -1.174310 -160.162994 78.291496 -0.242594 0.133920 0.106438 -0.126535 171.018005 -2.000000 2.000000 0.000000 79.843201 -17.699301 -161.671997 -49.697701 0.303280 0.104270 -0.058888 0.037684 -150.505997 -22.509354 4.989373 -16.698050 44.014923 2.192135 3.100801 -15.368450 -7.080258 -4.191804 -26.975006 2.867574 6.925415 45.615063 -1.847649 -3.314996 -27.576803 9.472345 3.471619 
-5.358162 49.850777 116.145180 3.224330 -6.571700 80.547600 -18.955500 -2.288110 -5.976400 12.713700 4.150400 -3.442200 29.661301 11.602100 -11.019300 19.588900 5.868360 -5.159730 2.000000 -2.000000 0.000000 -74.943398 -0.667396 -160.565002 79.297401 -0.240239 0.134386 0.107672 -0.127487 170.460999 -2.000000 2.000000 0.000000 79.999001 -17.103701 -161.621994 -49.336399 0.303936 0.103710 -0.058780 0.037232 -150.339996 -23.860464 4.886098 -17.638123 46.248051 2.043364 3.241981 -15.168902 -8.888862 -4.683051 -28.503448 2.771400 6.339824 47.895309 -1.694342 -3.452030 -27.598200 9.736910 3.589417 
-5.653905 49.422806 117.577492 3.136670 -6.699020 80.492203 -18.726900 -1.993590 -5.829170 12.399900 4.195560 -3.354520 29.205200 11.824600 -11.163100 19.483900 5.965750 -5.212170 2.000000 -2.000000 0.000000 -74.709297 -0.160377 -160.917999 80.352097 -0.237762 0.134831 0.108937 -0.128444 169.895004 -2.000000 2.000000 0.000000 80.037697 -16.400101 -161.835007 -49.102001 0.304359 0.103345 -0.058685 0.036833 -150.192993 -25.409658 4.827041 -17.763397 48.743141 1.904862 3.373470 -16.164591 -9.634765 -5.129645 -30.131441 2.663427 5.796858 50.106236 -1.548801 -3.595539 -27.204647 10.343570 3.857700 
-5.950645 48.982716 118.981728 3.118720 -6.962430 80.304398 -18.567400 -1.713720 -5.665010 12.037200 4.230320 -3.250000 28.802000 11.936800 -11.298900 19.377100 6.006730 -5.271640 2.000000 -2.000000 0.000000 -74.651001 0.473417 -161.348999 81.328697 -0.235462 0.135201 0.109683 -0.128999 169.563004 -2.000000 2.000000 0.000000 80.047302 -15.754700 -162.214996 -48.975101 0.304588 0.103146 -0.058542 0.036220 -149.968994 -27.137747 4.702410 -17.301880 51.279587 1.714580 3.529535 -17.701233 -9.412265 -5.425564 -31.855679 2.447791 5.299307 52.237617 -1.388212 -3.707572 -27.102470 11.130896 4.260974 
-6.234682 48.493771 120.357864 3.141780 -7.449850 79.826302 -18.422100 -1.448130 -5.371680 11.812900 4.140930 -3.087230 28.372000 11.991400 -11.475300 19.258200 5.972640 -5.323420 2.000000 -2.000000 0.000000 -74.416901 1.166020 -161.682007 82.334503 -0.233086 0.135542 0.110719 -0.129759 169.104004 -2.000000 2.000000 0.000000 80.047203 -14.982000 -162.731003 -48.867699 0.304781 0.102978 -0.058554 0.036274 -149.988007 -29.087099 4.635925 -16.380913 54.128201 1.513641 3.687357 -19.912786 -8.925161 -5.814942 -33.796223 2.296064 5.051081 54.339783 -1.240943 -3.847126 -27.360840 11.655470 4.587043 
-6.521795 47.936890 121.717155 3.324150 -8.092010 79.179199 -18.285101 -1.264250 -5.102050 11.706300 4.043240 -2.923750 27.878099 12.048000 -11.626800 19.129700 5.948210 -5.355010 2.000000 -2.000000 0.000000 -74.143898 1.946160 -162.171997 83.330597 -0.230728 0.135838 0.112475 -0.131017 168.332001 -2.000000 2.000000 0.000000 79.998199 -14.092200 -163.255997 -48.750500 0.304992 0.102794 -0.058560 0.036300 -149.998001 -31.155529 4.514424 -15.208000 56.996567 1.271857 3.837413 -22.348642 -8.308509 -6.200241 -35.787888 2.093154 5.238145 56.233963 -1.097457 -3.930073 -27.931887 12.676454 5.287823 
-6.808281 47.309502 123.071960 3.487940 -8.753540 78.266098 -18.139900 -1.056250 -4.767970 11.608800 4.003580 -2.739030 27.253401 12.230900 -11.705300 18.925301 6.010970 -5.361290 2.000000 -2.000000 0.000000 -73.812302 2.814150 -162.682007 84.316902 -0.228388 0.136091 0.114609 -0.132500 167.404007 -2.000000 2.000000 0.000000 80.144699 -13.016100 -164.044006 -48.457500 0.305516 0.102331 -0.058542 0.036220 -149.968994 -33.295895 4.630551 -13.775510 60.040192 1.023061 3.987509 -24.984655 -7.544939 -6.523897 -37.806145 2.045404 5.635100 58.323929 -0.949306 -4.024555 -28.788599 14.343961 6.509102 
-7.075332 46.642921 124.450348 3.702070 -9.394770 77.020401 -17.984900 -0.732178 -4.429990 11.644700 4.293440 -2.566700 26.737000 12.263800 -11.636700 18.780100 6.081440 -5.289930 2.000000 -2.000000 0.000000 -73.852097 3.730280 -163.485001 85.107903 -0.226508 0.136265 0.116583 -0.133826 166.554993 -2.000000 2.000000 0.000000 79.978500 -11.891500 -164.716003 -48.262199 0.305865 0.102022 -0.058499 0.036034 -149.899994 -35.349361 4.989666 -12.154954 63.229923 0.776234 4.139723 -27.572559 -7.085868 -6.929811 -39.833771 2.129829 6.086588 60.346321 -0.784710 -4.132862 -29.438812 16.102243 7.787529 
-7.360042 45.922844 125.788292 3.977430 -10.073800 76.206299 -17.904100 -0.667323 -4.172710 11.479600 4.175750 -2.423980 26.326099 12.237900 -11.700100 18.660299 6.018810 -5.281500 2.000000 -2.000000 0.000000 -73.520500 4.627710 -163.925995 85.801300 -0.224859 0.136396 0.118003 -0.134754 165.949005 -2.000000 2.000000 0.000000 80.349998 -10.941200 -166.042007 -48.115700 0.306125 0.101789 -0.058389 0.035554 -149.723999 -37.631725 5.097099 -10.840945 66.253105 0.503864 4.270397 -30.149630 -6.223828 -7.088336 -42.141827 1.839054 6.083267 62.682434 -0.587767 -4.246796 -29.957216 17.404488 8.724407 
-7.646807 45.190006 127.163315 4.104770 -10.705500 75.397102 -17.756599 -0.493555 -3.846990 11.352300 4.174260 -2.257440 25.916401 12.171600 -11.847400 18.578501 5.907690 -5.299450 2.000000 -2.000000 0.000000 -73.218002 5.320440 -164.201004 86.279800 -0.223720 0.136474 0.118416 -0.135021 165.774002 -2.000000 2.000000 0.000000 80.760597 -9.980510 -167.621002 -48.096199 0.306160 0.101757 -0.058341 0.035341 -149.645996 -39.803818 5.570073 -9.589052 69.314293 0.246087 4.383341 -32.555702 -5.657902 -7.344585 -44.534763 1.761236 6.008076 65.331230 -0.374614 -4.351500 -30.382095 18.493525 9.527430 
-7.928921 44.426884 128.555191 4.053040 -11.281000 74.760696 -17.586500 -0.329288 -3.630240 11.244700 4.163350 -2.136730 25.368000 12.189400 -11.906900 18.411100 5.893540 -5.272550 2.000000 -2.000000 0.000000 -72.866798 5.993620 -164.485992 86.543503 -0.223092 0.136514 0.118255 -0.134917 165.841995 -2.000000 2.000000 0.000000 81.200401 -9.029920 -169.044998 -48.047298 0.306246 0.101680 -0.058251 0.034941 -149.500000 -42.012863 6.200277 -8.786701 72.405128 -0.027557 4.486930 -34.550163 -5.448731 -7.716697 -46.861012 1.741695 5.726597 67.971214 -0.128926 -4.455996 -30.517330 19.609650 10.219651 
-8.212856 43.606506 129.906616 3.883190 -11.955700 74.213203 -17.436300 -0.173336 -3.380050 11.168900 3.950450 -1.980500 24.653400 12.375700 -12.035700 18.157000 5.938580 -5.289140 2.000000 -2.000000 0.000000 -72.368896 6.462390 -164.477005 86.621597 -0.222906 0.136525 0.118255 -0.134917 165.841995 -2.000000 2.000000 0.000000 81.640099 -8.157200 -170.565994 -48.154800 0.306056 0.101851 -0.058523 0.036141 -149.938995 -44.425774 6.912221 -8.548339 75.625237 -0.340488 4.598963 -36.015064 -5.614801 -8.198023 -49.312180 1.637355 5.156820 70.669861 0.120674 -4.553683 -30.243010 21.079317 10.925182 
-8.460325 42.778027 131.281631 3.741050 -12.493700 73.728699 -17.215599 -0.019718 -3.219320 11.228700 3.854750 -1.872780 24.099300 12.633600 -12.004700 18.023899 6.094020 -5.246170 2.000000 -2.000000 0.000000 -72.027298 6.745210 -164.643997 86.406799 -0.223418 0.136494 0.118370 -0.134991 165.792999 -2.000000 2.000000 0.000000 81.923401 -7.226980 -171.619003 -48.096199 0.306160 0.101757 -0.058407 0.035634 -149.753998 -46.750870 7.582349 -8.600012 78.864433 -0.642315 4.682373 -36.953922 -6.231045 -8.887549 -51.589111 1.488289 4.634369 73.564743 0.363468 -4.658910 -29.862991 22.715492 11.659345 
-8.675229 41.957664 132.704971 3.534930 -12.779200 73.240501 -16.966999 0.180351 -2.989920 11.277200 3.893840 -1.748830 23.871799 12.662900 -12.071600 18.003500 6.066150 -5.245510 2.000000 -2.000000 0.000000 -71.666000 6.833030 -164.673004 85.879402 -0.224673 0.136409 0.118762 -0.135242 165.626999 -2.000000 2.000000 0.000000 -98.183899 -173.429001 7.601570 -48.242599 0.305899 0.101991 -0.058629 0.036593 -150.104996 -48.719528 8.398817 -8.798569 82.240105 -0.925193 4.731616 -37.700359 -7.122906 -9.704180 -53.445587 1.479875 4.137729 76.313377 0.629023 -4.740086 -29.725563 23.886757 12.229329 
